<?xml version="1.0" encoding="UTF-8"?>
<svg version="1.1" xmlns="http://www.w3.org/2000/svg" width="500" height="500">
<path d="M0 0 C165 0 330 0 500 0 C500 165 500 330 500 500 C335 500 170 500 0 500 C0 335 0 170 0 0 Z " fill="#0003FE" transform="translate(0,0)"/>
<path d="M0 0 C2.70904954 0.81464663 4.80921921 1.8520148 7.23486328 3.30200195 C8.11287598 3.82310547 8.99088867 4.34420898 9.89550781 4.88110352 C10.82991699 5.44667969 11.76432617 6.01225586 12.72705078 6.5949707 C13.70915527 7.18246094 14.69125977 7.76995117 15.703125 8.37524414 C22.53121102 12.47893156 29.2821295 16.69632415 35.99755859 20.98120117 C43.09492126 25.49783761 50.2797016 29.8654658 57.47705078 34.2199707 C66.16463874 39.47799304 74.84152008 44.75162989 83.47705078 50.0949707 C84.31993652 50.61567139 85.16282227 51.13637207 86.03125 51.67285156 C87.55710358 52.61894351 89.07757326 53.5738057 90.59106445 54.53955078 C92.39273212 55.6530982 94.26618497 56.648481 96.14501953 57.6262207 C98.60205078 59.7824707 98.60205078 59.7824707 99.22314453 63.63793945 C99.19273767 65.0829262 99.13058457 66.52753384 99.03955078 67.9699707 C99.02085937 68.70666992 99.00216797 69.44336914 98.98291016 70.20239258 C98.79969959 75.58482189 98.79969959 75.58482189 97.60205078 76.7824707 C94.93146227 76.92362232 92.2777284 76.82494178 89.60205078 76.7824707 C89.60205078 79.7524707 89.60205078 82.7224707 89.60205078 85.7824707 C88.61205078 86.1124707 87.62205078 86.4424707 86.60205078 86.7824707 C86.60205078 109.8824707 86.60205078 132.9824707 86.60205078 156.7824707 C87.59205078 157.1124707 88.58205078 157.4424707 89.60205078 157.7824707 C89.60205078 165.0424707 89.60205078 172.3024707 89.60205078 179.7824707 C92.24205078 179.7824707 94.88205078 179.7824707 97.60205078 179.7824707 C99.48757608 181.667996 98.73451768 184.36015901 98.73876953 186.86450195 C98.73490234 187.66243164 98.73103516 188.46036133 98.72705078 189.2824707 C98.73091797 190.08040039 98.73478516 190.87833008 98.73876953 191.70043945 C98.72865846 197.65586303 98.72865846 197.65586303 97.60205078 198.7824707 C95.07499448 198.88243353 92.57520564 198.91688272 90.04760742 198.90945435 C89.2470823 198.91101434 88.44655718 198.91257433 87.62177372 198.91418159 C84.91856652 198.91819488 82.21541472 198.91500068 79.51220703 198.91186523 C77.58267178 198.91321913 75.65313679 198.91499899 73.72360229 198.91717529 C68.46755724 198.92175103 63.21153171 198.91995949 57.9554863 198.91679621 C52.46796362 198.91427332 46.98044266 198.91660994 41.49291992 198.91818237 C32.27571308 198.92000428 23.05851423 198.91759721 13.84130859 198.9128418 C3.16844956 198.90739914 -7.50439038 198.90916178 -18.17724895 198.9146682 C-27.32285825 198.91919873 -36.46846179 198.91985018 -45.61407185 198.91722953 C-51.08417893 198.91566643 -56.55427703 198.91547391 -62.02438354 198.91876602 C-67.16574884 198.92164387 -72.30708939 198.91967064 -77.448452 198.91387177 C-79.34117466 198.9125437 -81.23389939 198.91293906 -83.12662125 198.91513443 C-85.69894473 198.91784413 -88.27118759 198.91446705 -90.84350586 198.90945435 C-91.60253676 198.91168507 -92.36156767 198.91391579 -93.14359951 198.91621411 C-98.28379937 198.89662055 -98.28379937 198.89662055 -99.39794922 197.7824707 C-99.49781897 194.93912022 -99.53672803 192.12549907 -99.52294922 189.2824707 C-99.52681641 188.48454102 -99.53068359 187.68661133 -99.53466797 186.86450195 C-99.52455689 180.90907838 -99.52455689 180.90907838 -98.39794922 179.7824707 C-95.75794922 179.7824707 -93.11794922 179.7824707 -90.39794922 179.7824707 C-90.39794922 172.5224707 -90.39794922 165.2624707 -90.39794922 157.7824707 C-89.07794922 157.4524707 -87.75794922 157.1224707 -86.39794922 156.7824707 C-86.39794922 133.6824707 -86.39794922 110.5824707 -86.39794922 86.7824707 C-87.71794922 86.4524707 -89.03794922 86.1224707 -90.39794922 85.7824707 C-90.39794922 82.8124707 -90.39794922 79.8424707 -90.39794922 76.7824707 C-91.69732422 76.8030957 -92.99669922 76.8237207 -94.33544922 76.8449707 C-95.68960555 76.86646525 -97.04551005 76.85395269 -98.39794922 76.7824707 C-100.82911429 74.35130563 -100.61200262 69.55328122 -100.72119141 66.26269531 C-100.52078429 62.98156949 -100.15337877 60.66536598 -97.97998047 58.12524414 C-93.57341255 54.57603086 -88.49377664 52.06058877 -83.49658203 49.45043945 C-78.31428081 46.66084901 -73.33456915 43.53824298 -68.32574463 40.4520874 C-65.31227671 38.60148326 -62.28382928 36.77570575 -59.25732422 34.9465332 C-52.58120145 30.90369079 -45.93914168 26.80753455 -39.30908203 22.68969727 C-34.35575465 19.61342026 -29.39640132 16.54723424 -24.42919922 13.4934082 C-23.83458893 13.12782303 -23.23997864 12.76223785 -22.62734985 12.38557434 C-20.2626875 10.93197733 -17.89786256 9.47864694 -15.53240967 8.02633667 C-13.90137386 7.02492801 -12.27074683 6.02285364 -10.64013672 5.02075195 C-9.70024902 4.44365479 -8.76036133 3.86655762 -7.79199219 3.27197266 C-2.21069639 -0.20054271 -2.21069639 -0.20054271 0 0 Z " fill="#E7E9FC" transform="translate(250.39794921875,94.217529296875)"/>
<path d="M0 0 C2.43994141 1.22070313 2.43994141 1.22070313 4.8515625 2.78125 C5.77050293 3.36704834 6.68944336 3.95284668 7.63623047 4.55639648 C9.11567139 5.51848022 9.11567139 5.51848022 10.625 6.5 C12.78531949 7.87808898 14.9468261 9.25431837 17.109375 10.62890625 C17.6703891 10.98686783 18.2314032 11.34482941 18.80941772 11.71363831 C24.52815082 15.35607463 30.31929293 18.87496345 36.12319946 22.37954712 C39.05162655 24.148092 41.97685331 25.92191557 44.90234375 27.6953125 C45.48324265 28.04735245 46.06414154 28.3993924 46.66264343 28.76210022 C52.69040221 32.41620087 58.71209226 36.08010285 64.72247314 39.76272583 C66.39343834 40.7855297 68.06656432 41.80480083 69.73974609 42.82397461 C70.75246582 43.4453833 71.76518555 44.06679199 72.80859375 44.70703125 C73.69345459 45.2481958 74.57831543 45.78936035 75.48999023 46.34692383 C78.10675374 48.07030732 80.55331211 50.04264969 83 52 C25.58 52 -31.84 52 -91 52 C-87.36289701 49.09031761 -84.07231991 46.71837089 -80.125 44.34765625 C-79.28916634 43.84326019 -79.28916634 43.84326019 -78.43644714 43.32867432 C-77.24463662 42.60988663 -76.05187663 41.89267127 -74.85824585 41.1769104 C-71.68889496 39.27621594 -68.52659815 37.36383862 -65.36328125 35.453125 C-64.41380363 34.88027519 -64.41380363 34.88027519 -63.44514465 34.29585266 C-58.00072672 31.00844312 -52.58799252 27.67158007 -47.1875 24.3125 C-38.76000132 19.07489905 -30.29470194 13.90163588 -21.8112793 8.75512695 C-20.45643433 7.93274536 -20.45643433 7.93274536 -19.07421875 7.09375 C-18.20974121 6.57425781 -17.34526367 6.05476563 -16.45458984 5.51953125 C-14.86666787 4.53651689 -13.30176496 3.51485572 -11.76806641 2.44921875 C-11.0879248 1.98128906 -10.4077832 1.51335937 -9.70703125 1.03125 C-9.13057861 0.61423828 -8.55412598 0.19722656 -7.96020508 -0.23242188 C-5.01861795 -1.3842901 -3.01757402 -0.78671352 0 0 Z " fill="#0407FE" transform="translate(254,101)"/>
<path d="M0 0 C32 0 32 0 42 5 C47.37267653 10.63475831 47.33577755 14.9010189 47.2890625 22.5 C46.79050021 28.5366461 44.28100302 31.84166182 40 36 C40.77923828 36.32871094 40.77923828 36.32871094 41.57421875 36.6640625 C47.35514629 39.29272826 51.09031948 42.18063897 54 48 C54.66379203 55.68257663 54.84723909 62.68208156 50 69 C45.7609506 73.2390494 42.75229029 74.53473273 37 77 C24.79 77 12.58 77 0 77 C0 51.59 0 26.18 0 0 Z " fill="#FDFDFF" transform="translate(256,318)"/>
<path d="M0 0 C3.3 0 6.6 0 10 0 C10 4.29 10 8.58 10 13 C11.299375 13.2475 12.59875 13.495 13.9375 13.75 C18.95526261 14.84912895 23.39644856 16.75808133 28 19 C27.41892368 22.7602985 26.34800504 25.53035032 24.4375 28.8125 C23.98246094 29.60269531 23.52742188 30.39289063 23.05859375 31.20703125 C22.53458984 32.09455078 22.53458984 32.09455078 22 33 C21.40574219 32.7834375 20.81148437 32.566875 20.19921875 32.34375 C13.82552873 30.20266595 7.73113971 29.1001775 1 30 C-1.34973818 31.89755144 -1.34973818 31.89755144 -1.125 35.125 C-1.08375 36.07375 -1.0425 37.0225 -1 38 C0.03898437 38.49628906 1.07796875 38.99257813 2.1484375 39.50390625 C27.02843082 51.54820022 27.02843082 51.54820022 30 60 C30.91111148 66.87848128 31.16482418 74.20893353 27.4609375 80.31640625 C23.63574396 84.72458383 18.76401448 88.01049683 12.9375 88.875 C11.968125 88.91625 10.99875 88.9575 10 89 C10 93.62 10 98.24 10 103 C6.7 103 3.4 103 0 103 C0 98.71 0 94.42 0 90 C-1.36125 89.979375 -2.7225 89.95875 -4.125 89.9375 C-9.15017356 89.45444888 -13.10099204 87.84887778 -17.5625 85.625 C-18.18205566 85.32070068 -18.80161133 85.01640137 -19.43994141 84.70288086 C-23.86938703 82.39183891 -23.86938703 82.39183891 -25 79 C-23.671875 76.08203125 -23.671875 76.08203125 -21.75 72.8125 C-21.12609375 71.72582031 -20.5021875 70.63914062 -19.859375 69.51953125 C-19.24578125 68.68808594 -18.6321875 67.85664063 -18 67 C-14.33540949 67 -13.07586101 68.06864541 -10 70 C-4.27848292 73.20648102 0.51529473 74.26000973 7 73 C9.88715115 71.61854581 9.88715115 71.61854581 11 69 C11.33957101 66.04597655 11.33957101 66.04597655 10 63 C7.18409722 60.89825276 4.06272442 59.5164249 0.875 58.0625 C-7.18086065 54.32403868 -13.42302998 50.48891552 -17.9375 42.625 C-19.77349534 36.3610159 -19.99404679 31.35726778 -17.125 25.375 C-13.9633239 20.22029025 -9.36310845 16.71207598 -4 14 C-2.68 14 -1.36 14 0 14 C0 9.38 0 4.76 0 0 Z " fill="#FAFAFF" transform="translate(216,305)"/>
<path d="M0 0 C5.61 0 11.22 0 17 0 C17 3.3 17 6.6 17 10 C17.99 10 18.98 10 20 10 C20 33.1 20 56.2 20 80 C19.01 80 18.02 80 17 80 C17 83.3 17 86.6 17 90 C11.06 90 5.12 90 -1 90 C-1 86.7 -1 83.4 -1 80 C-1.99 80 -2.98 80 -4 80 C-4 56.9 -4 33.8 -4 10 C-3.01 9.67 -2.02 9.34 -1 9 C-0.67 6.03 -0.34 3.06 0 0 Z " fill="#0407FE" transform="translate(242,171)"/>
<path d="M0 0 C5.61 0 11.22 0 17 0 C17.33 2.97 17.66 5.94 18 9 C18.99 9.33 19.98 9.66 21 10 C21 33.1 21 56.2 21 80 C19.515 80.495 19.515 80.495 18 81 C17.67 83.97 17.34 86.94 17 90 C11.39 90 5.78 90 0 90 C0 86.7 0 83.4 0 80 C-0.99 80 -1.98 80 -3 80 C-3 56.9 -3 33.8 -3 10 C-2.34 9.67 -1.68 9.34 -1 9 C-0.53348793 6.87423218 -0.53348793 6.87423218 -0.375 4.4375 C-0.25125 2.973125 -0.1275 1.50875 0 0 Z " fill="#0306FE" transform="translate(192,171)"/>
<path d="M0 0 C5.61 0 11.22 0 17 0 C17 3.3 17 6.6 17 10 C17.99 10 18.98 10 20 10 C20 33.1 20 56.2 20 80 C19.01 80 18.02 80 17 80 C17 83.3 17 86.6 17 90 C11.39 90 5.78 90 0 90 C-0.33 87.03 -0.66 84.06 -1 81 C-1.99 80.67 -2.98 80.34 -4 80 C-4 56.9 -4 33.8 -4 10 C-3.01 9.67 -2.02 9.34 -1 9 C-0.67 6.03 -0.34 3.06 0 0 Z " fill="#0406FE" transform="translate(291,171)"/>
<path d="M0 0 C62.7 0 125.4 0 190 0 C190 2.64 190 5.28 190 8 C127.3 8 64.6 8 0 8 C0 5.36 0 2.72 0 0 Z " fill="#090CFE" transform="translate(155,279)"/>
<path d="M0 0 C62.7 0 125.4 0 190 0 C190 2.64 190 5.28 190 8 C127.3 8 64.6 8 0 8 C0 5.36 0 2.72 0 0 Z " fill="#090CFE" transform="translate(155,158)"/>
<path d="M0 0 C56.1 0 112.2 0 170 0 C170 2.64 170 5.28 170 8 C113.9 8 57.8 8 0 8 C0 5.36 0 2.72 0 0 Z " fill="#0003FF" transform="translate(165,266)"/>
<path d="M0 0 C5.28 0 10.56 0 16 0 C16.02255299 8.97921106 16.04091622 17.95840345 16.05181217 26.93763638 C16.05704051 31.10662828 16.06413726 35.27559987 16.07543945 39.44458008 C16.08627008 43.46457686 16.09227721 47.48455405 16.09487724 51.50456429 C16.09673118 53.04162975 16.10035119 54.57869409 16.10573006 56.11575127 C16.11294284 58.26135487 16.11399084 60.40687655 16.11352539 62.55249023 C16.115746 63.77604721 16.11796661 64.99960419 16.12025452 66.26023865 C16 69 16 69 15 70 C10.05 70 5.1 70 0 70 C0 46.9 0 23.8 0 0 Z " fill="#0C0FFE" transform="translate(316,181)"/>
<path d="M0 0 C5.28 0 10.56 0 16 0 C16 23.1 16 46.2 16 70 C11.05 70 6.1 70 1 70 C0 69 0 69 -0.12025452 66.26023865 C-0.11803391 65.03668167 -0.11581329 63.81312469 -0.11352539 62.55249023 C-0.11367142 61.87934784 -0.11381744 61.20620544 -0.1139679 60.51266479 C-0.11326878 58.27794216 -0.10547652 56.0433019 -0.09765625 53.80859375 C-0.09579206 52.26302638 -0.09436816 50.71745843 -0.09336853 49.17189026 C-0.0895434 45.09642923 -0.07971317 41.02100363 -0.06866455 36.94555664 C-0.05845032 32.78988118 -0.05387089 28.63420001 -0.04882812 24.47851562 C-0.03809089 16.31899232 -0.02049414 8.15950464 0 0 Z " fill="#0C0FFE" transform="translate(168,181)"/>
<path d="M0 0 C4.95 0 9.9 0 15 0 C15 22.77 15 45.54 15 69 C10.05 69 5.1 69 0 69 C0 46.23 0 23.46 0 0 Z " fill="#0003FE" transform="translate(267,181)"/>
<path d="M0 0 C4.95 0 9.9 0 15 0 C15 22.77 15 45.54 15 69 C10.05 69 5.1 69 0 69 C0 46.23 0 23.46 0 0 Z " fill="#0003FE" transform="translate(218,181)"/>
<path d="M0 0 C2.58935547 1.36010742 2.58935547 1.36010742 5.3671875 3.10546875 C6.40681641 3.75265869 7.44644531 4.39984863 8.51757812 5.06665039 C9.62552734 5.76653076 10.73347656 6.46641113 11.875 7.1875 C13.62134625 8.27970775 15.36923768 9.36941518 17.11712646 10.45915222 C18.30964001 11.20302775 19.50157114 11.94783772 20.69293213 12.69355774 C27.49889627 16.95062045 34.37577893 21.09051992 41.26123047 25.2175293 C45.77799751 27.94785119 50.25175924 30.7441117 54.65625 33.65234375 C55.48962891 34.19753662 56.32300781 34.74272949 57.18164062 35.30444336 C57.78169922 35.86397705 58.38175781 36.42351074 59 37 C59 38.32 59 39.64 59 41 C53.68312313 40.50121115 49.74498146 37.68015847 45.3125 34.9375 C44.45543457 34.41526855 43.59836914 33.89303711 42.71533203 33.35498047 C39.80507813 31.57824282 36.90227272 29.78974254 34 28 C32.32607319 26.97138911 30.65214248 25.94278452 28.97801208 24.914505 C23.96840084 21.83733896 18.96318283 18.75319424 13.9609375 15.6640625 C12.95772461 15.05208008 11.95451172 14.44009766 10.92089844 13.80957031 C8.98733804 12.61168084 7.07310637 11.38196389 5.18066406 10.12011719 C4.30893555 9.55196289 3.43720703 8.98380859 2.5390625 8.3984375 C1.40138428 7.63152588 1.40138428 7.63152588 0.24072266 6.84912109 C-2.03382356 5.73197535 -2.03382356 5.73197535 -4.57788086 6.73632812 C-7.84011091 8.43830401 -11.02776335 10.24173597 -14.1875 12.125 C-14.90437988 12.54950439 -15.62125977 12.97400879 -16.35986328 13.41137695 C-25.57781417 18.89861774 -34.70659631 24.53495612 -43.8359375 30.16796875 C-45.37652832 31.11422119 -45.37652832 31.11422119 -46.94824219 32.07958984 C-49.00901111 33.37639051 -51.04615202 34.71140341 -53.05957031 36.08056641 C-54.02217773 36.7307373 -54.98478516 37.3809082 -55.9765625 38.05078125 C-56.82557129 38.64157471 -57.67458008 39.23236816 -58.54931641 39.84106445 C-61.51135518 41.24182138 -62.92618648 40.96224026 -66 40 C-66 39.01 -66 38.02 -66 37 C-64.02587891 35.44458008 -64.02587891 35.44458008 -61.2265625 33.76953125 C-60.1862085 33.13901855 -59.14585449 32.50850586 -58.07397461 31.85888672 C-56.92436363 31.17667823 -55.77470419 30.49455139 -54.625 29.8125 C-53.45185293 29.10549364 -52.2794168 28.39730636 -51.10766602 27.68798828 C-48.65578728 26.2051002 -46.2008667 24.72744674 -43.74365234 23.25341797 C-37.78124421 19.67139989 -31.86105293 16.02075783 -25.9375 12.375 C-24.87547363 11.7250708 -23.81344727 11.0751416 -22.71923828 10.40551758 C-21.70716309 9.78443115 -20.69508789 9.16334473 -19.65234375 8.5234375 C-18.69183105 7.93530273 -17.73131836 7.34716797 -16.74169922 6.74121094 C-13.40202755 4.62023691 -10.20255338 2.32822856 -7.03735352 -0.04443359 C-4.23872253 -1.35705692 -2.9125254 -0.95780297 0 0 Z " fill="#E7E9FC" transform="translate(253,108)"/>
<path d="M0 0 C0.99 0.33 1.98 0.66 3 1 C3 1.99 3 2.98 3 4 C5.31 4 7.62 4 10 4 C10.5625 5.9375 10.5625 5.9375 11 8 C10 9 10 9 6.4375 9.0625 C5.303125 9.041875 4.16875 9.02125 3 9 C3 10.32 3 11.64 3 13 C3.763125 12.938125 4.52625 12.87625 5.3125 12.8125 C8 13 8 13 9.8125 14 C11.71020228 17.19613015 11.55003751 20.383315 11 24 C9.8125 26 9.8125 26 8 27 C5.3125 27.1875 5.3125 27.1875 3 27 C3 28.32 3 29.64 3 31 C1.68 31 0.36 31 -1 31 C-1 29.68 -1 28.36 -1 27 C-3.31 27 -5.62 27 -8 27 C-8.5625 25.0625 -8.5625 25.0625 -9 23 C-8 22 -8 22 -4.9375 21.9375 C-3.4834375 21.9684375 -3.4834375 21.9684375 -2 22 C-2 20.68 -2 19.36 -2 18 C-3.175625 18.0928125 -3.175625 18.0928125 -4.375 18.1875 C-5.24125 18.125625 -6.1075 18.06375 -7 18 C-9.53637054 14.19544419 -9.59473663 11.46052469 -9 7 C-7.8125 5 -7.8125 5 -6 4 C-3.3125 3.8125 -3.3125 3.8125 -1 4 C-0.67 2.68 -0.34 1.36 0 0 Z " fill="#E1E3FC" transform="translate(249,119)"/>
<path d="M0 0 C6.5800756 -0.27041407 11.25571769 -0.35083134 17 3 C19.27444992 5.6535249 18.99878584 7.02306903 18.8125 10.5625 C17.72853828 15.14849188 17.72853828 15.14849188 15 17 C10.23310453 19.74457618 5.33993725 19.14239833 0 19 C0 12.73 0 6.46 0 0 Z " fill="#1114FF" transform="translate(273,363)"/>
<path d="M0 0 C9.2972973 1.16216216 9.2972973 1.16216216 12 3 C13.61028119 6.22056238 13.59198765 9.5169099 13 13 C11 15.5 11 15.5 8 17 C5.36 17 2.72 17 0 17 C0 11.39 0 5.78 0 0 Z " fill="#1214FF" transform="translate(273,331)"/>
<path d="M0 0 C0.91644287 0.00523682 1.83288574 0.01047363 2.77709961 0.01586914 C3.76645508 0.0190918 4.75581055 0.02231445 5.77514648 0.02563477 C6.81606445 0.03401367 7.85698242 0.04239258 8.92944336 0.05102539 C10.49662109 0.05779297 10.49662109 0.05779297 12.09545898 0.06469727 C14.68600996 0.07652627 17.27644895 0.0930085 19.86694336 0.11352539 C19.86694336 2.09352539 19.86694336 4.07352539 19.86694336 6.11352539 C12.27694336 6.11352539 4.68694336 6.11352539 -3.13305664 6.11352539 C-3.13305664 0.16674732 -3.13305664 0.16674732 0 0 Z " fill="#2427FE" transform="translate(266.133056640625,254.886474609375)"/>
<path d="M0 0 C3.64581687 -0.02887512 7.29160463 -0.04675585 10.9375 -0.0625 C12.49887695 -0.07506836 12.49887695 -0.07506836 14.09179688 -0.08789062 C15.57583008 -0.09272461 15.57583008 -0.09272461 17.08984375 -0.09765625 C18.46450806 -0.10551147 18.46450806 -0.10551147 19.86694336 -0.11352539 C22 0 22 0 23 1 C23 2.65 23 4.3 23 6 C15.41 6 7.82 6 0 6 C0 4.02 0 2.04 0 0 Z " fill="#2527FE" transform="translate(214,255)"/>
<path d="M0 0 C7.59 0 15.18 0 23 0 C23 1.65 23 3.3 23 5 C15.41 5 7.82 5 0 5 C0 3.35 0 1.7 0 0 Z " fill="#080BFE" transform="translate(214,171)"/>
<path d="M0 0 C7.26 0 14.52 0 22 0 C22 1.65 22 3.3 22 5 C14.74 5 7.48 5 0 5 C0 3.35 0 1.7 0 0 Z " fill="#0D10FE" transform="translate(313,256)"/>
<path d="M0 0 C7.26 0 14.52 0 22 0 C22 1.65 22 3.3 22 5 C14.74 5 7.48 5 0 5 C0 3.35 0 1.7 0 0 Z " fill="#0D10FE" transform="translate(165,256)"/>
<path d="M0 0 C7.26 0 14.52 0 22 0 C22 1.65 22 3.3 22 5 C14.74 5 7.48 5 0 5 C0 3.35 0 1.7 0 0 Z " fill="#0104FF" transform="translate(313,171)"/>
<path d="M0 0 C7.26 0 14.52 0 22 0 C22 1.65 22 3.3 22 5 C14.74 5 7.48 5 0 5 C0 3.35 0 1.7 0 0 Z " fill="#0306FE" transform="translate(264,171)"/>
<path d="M0 0 C7.26 0 14.52 0 22 0 C22 1.65 22 3.3 22 5 C14.74 5 7.48 5 0 5 C0 3.35 0 1.7 0 0 Z " fill="#0104FF" transform="translate(165,171)"/>
</svg>
