<?xml version="1.0" encoding="UTF-8"?>
<svg version="1.1" xmlns="http://www.w3.org/2000/svg" width="500" height="500">
<path d="M0 0 C165 0 330 0 500 0 C500 165 500 330 500 500 C335 500 170 500 0 500 C0 335 0 170 0 0 Z " fill="#FEFEFF" transform="translate(0,0)"/>
<path d="M0 0 C1.94677734 0.87939453 1.94677734 0.87939453 3.8359375 2.1328125 C4.5582959 2.60195068 5.2806543 3.07108887 6.02490234 3.55444336 C6.80043457 4.07272705 7.5759668 4.59101074 8.375 5.125 C10.08207289 6.23501374 11.79046428 7.34300177 13.5 8.44921875 C14.3971875 9.0323584 15.294375 9.61549805 16.21875 10.21630859 C20.88534641 13.20912402 25.63058997 16.07025921 30.375 18.9375 C37.70842253 23.38347496 45.02512296 27.85392022 52.3125 32.375 C60.15896828 37.24172119 68.01251594 42.09668557 75.875 46.9375 C76.95837646 47.60467041 78.04175293 48.27184082 79.15795898 48.95922852 C84.63745159 52.32981196 90.12434751 55.68748426 95.625 59.0234375 C96.67703613 59.661604 97.72907227 60.29977051 98.81298828 60.95727539 C100.8049517 62.16417461 102.79805686 63.36919212 104.79248047 64.57202148 C106.12883545 65.38135132 106.12883545 65.38135132 107.4921875 66.20703125 C108.26933105 66.6760083 109.04647461 67.14498535 109.84716797 67.62817383 C110.55760254 68.08087646 111.26803711 68.5335791 112 69 C112.7434668 69.46680176 113.48693359 69.93360352 114.25292969 70.41455078 C116 72 116 72 116.48583984 73.96118164 C116.47762207 74.68684326 116.4694043 75.41250488 116.4609375 76.16015625 C116.45707031 76.95357422 116.45320312 77.74699219 116.44921875 78.56445312 C116.42472656 79.38880859 116.40023437 80.21316406 116.375 81.0625 C116.37306641 82.30483398 116.37306641 82.30483398 116.37109375 83.57226562 C116.28106936 89.71893064 116.28106936 89.71893064 114 92 C110.98173347 92.27240673 108.03629378 92.08675125 105 92 C105 95.3 105 98.6 105 102 C103.02 102.99 103.02 102.99 101 104 C101 131.39 101 158.78 101 187 C102.32 187.66 103.64 188.32 105 189 C105 197.58 105 206.16 105 215 C107.97 215 110.94 215 114 215 C116 217 116 217 116.24291992 218.95532227 C116.23881104 219.73447998 116.23470215 220.5136377 116.23046875 221.31640625 C116.22853516 222.16267578 116.22660156 223.00894531 116.22460938 223.88085938 C116.21236328 224.76580078 116.20011719 225.65074219 116.1875 226.5625 C116.1865332 227.89571289 116.1865332 227.89571289 116.18554688 229.25585938 C116.14021097 235.85978903 116.14021097 235.85978903 115 237 C111.96826265 237.10024222 108.95922694 237.13437872 105.92700195 237.12698364 C104.96313474 237.12854363 103.99926752 237.13010362 103.00619221 237.13171089 C99.75020671 237.13572536 96.49426717 237.13252952 93.23828125 237.12939453 C90.9146624 237.13074837 88.59104376 237.13252821 86.26742554 237.13470459 C79.93703566 237.13928095 73.606662 237.13748853 67.27627182 237.1343255 C61.33651893 237.13205825 55.39676809 237.13378435 49.45701516 237.1352527 C36.97573389 237.13810758 24.49445996 237.13482034 12.0131799 237.12945233 C1.29231157 237.12498429 -9.42854593 237.12576022 -20.14941406 237.13037109 C-32.584546 237.13571671 -45.0196715 237.13783289 -57.45480442 237.13475883 C-64.04273806 237.13319558 -70.63066424 237.13300361 -77.21859741 237.13629532 C-83.41055421 237.13917278 -89.60249047 237.13720066 -95.79444504 237.13140106 C-98.07418153 237.13007279 -100.35391973 237.13046871 -102.63365555 237.13266373 C-105.73146146 237.1353726 -108.82920038 237.13199734 -111.92700195 237.12698364 C-112.84167079 237.12921436 -113.75633963 237.13144509 -114.6987257 237.13374341 C-120.88585019 237.11414981 -120.88585019 237.11414981 -122 236 C-122.24966567 232.8617655 -122.18521791 229.70950387 -122.1875 226.5625 C-122.19974609 225.67755859 -122.21199219 224.79261719 -122.22460938 223.88085938 C-122.22654297 223.03458984 -122.22847656 222.18832031 -122.23046875 221.31640625 C-122.23457764 220.53724854 -122.23868652 219.75809082 -122.24291992 218.95532227 C-122 217 -122 217 -120 215 C-116.7 215 -113.4 215 -110 215 C-110 206.09 -110 197.18 -110 188 C-108.68 187.67 -107.36 187.34 -106 187 C-106 159.61 -106 132.22 -106 104 C-107.32 103.67 -108.64 103.34 -110 103 C-110 99.37 -110 95.74 -110 92 C-113.80859375 92.09765625 -113.80859375 92.09765625 -117.6171875 92.1953125 C-120 92 -120 92 -122 90 C-123.39798412 83.99056599 -124.14929976 77.91868123 -122 72 C-117.97998611 67.06088922 -111.66243413 64.46900389 -106.09863281 61.63574219 C-100.89743816 58.8900753 -95.92965248 55.7601542 -90.92779541 52.67163086 C-87.91551697 50.81839174 -84.8863941 48.99308419 -81.859375 47.1640625 C-76.01028852 43.62214621 -70.18467825 40.04366322 -64.375 36.4375 C-63.54742187 35.92380859 -62.71984375 35.41011719 -61.8671875 34.88085938 C-61.02929688 34.36072266 -60.19140625 33.84058594 -59.328125 33.3046875 C-51.08738974 28.18921221 -42.82700499 23.10575098 -34.55859375 18.03515625 C-30.16099205 15.33685126 -25.78053381 12.6132531 -21.41015625 9.87109375 C-19.33597321 8.58067177 -17.26175593 7.29030481 -15.1875 6 C-14.23311035 5.39422119 -13.2787207 4.78844238 -12.29541016 4.16430664 C-11.40772949 3.61508545 -10.52004883 3.06586426 -9.60546875 2.5 C-8.83356201 2.0153125 -8.06165527 1.530625 -7.26635742 1.03125 C-4.58759146 -0.18765633 -2.91451758 -0.3441818 0 0 Z " fill="#1C09FF" transform="translate(253,13)"/>
<path d="M0 0 C80.58579882 0 80.58579882 0 95 14 C101.89796492 22.23839915 104.52799343 30.93436402 104.3125 41.5625 C104.31572266 42.36107422 104.31894531 43.15964844 104.32226562 43.98242188 C104.21926974 55.47114498 100.60592989 64.74228922 92.8828125 73.234375 C90.15286502 75.79440873 87.35319764 77.35761748 84 79 C84.97839844 79.29132813 85.95679688 79.58265625 86.96484375 79.8828125 C98.38751993 83.40163257 107.63129198 87.3013472 114 98 C119.86187296 109.40434899 121.49801886 123.46840611 118.09375 135.9921875 C113.4017612 148.7748493 104.9265456 158.15882918 92.58984375 163.9375 C63.48756883 175.87689484 30.53731733 169 0 169 C0 113.23 0 57.46 0 0 Z " fill="#1501FF" transform="translate(263,291)"/>
<path d="M0 0 C7.26 0 14.52 0 22 0 C22 9.57 22 19.14 22 29 C25.3 29.33 28.6 29.66 32 30 C34.92651958 30.83163686 37.66893097 31.68660666 40.5 32.75 C41.22977051 33.01586914 41.95954102 33.28173828 42.71142578 33.55566406 C49.49390122 36.0786066 55.96703777 38.97802518 62 43 C60.58077881 46.6893862 58.9547487 50.20704248 57.1796875 53.73828125 C56.37724609 55.33833008 56.37724609 55.33833008 55.55859375 56.97070312 C55.00300781 58.07349609 54.44742188 59.17628906 53.875 60.3125 C53.03001953 61.99569336 53.03001953 61.99569336 52.16796875 63.71289062 C50.78044843 66.47617262 49.39106622 69.23850182 48 72 C44.06141273 71.26898691 40.68723055 70.14744476 37 68.5625 C35.00015359 67.70797379 33.00016008 66.85379174 31 66 C30.175 65.63777344 29.35 65.27554688 28.5 64.90234375 C20.62241383 62.05902749 10.3435235 61.5347994 2.375 64.25 C-1.00836603 66.00433794 -2.11429468 66.81438539 -4 70 C-4.54646682 72.63943972 -4.54646682 72.63943972 -4.5 75.4375 C-4.54640625 76.82775391 -4.54640625 76.82775391 -4.59375 78.24609375 C-3.55493703 83.06427235 -0.10706023 85.24350884 3.8125 87.921875 C10.90712552 91.9908514 18.06419403 95.37514463 25.625 98.5 C33.81386817 101.89849319 40.95750964 105.53755555 48 111 C49.11375 111.84304688 49.11375 111.84304688 50.25 112.703125 C57.63075551 118.68601015 65.10080438 127.71409708 66.29956055 137.42724609 C66.43937167 140.1883248 66.46701939 142.92306801 66.4375 145.6875 C66.43065186 146.66412598 66.42380371 147.64075195 66.41674805 148.64697266 C66.15028776 160.64467121 62.69684485 170.5119267 54.75 179.5625 C53.38875 180.7690625 53.38875 180.7690625 52 182 C51.40960938 182.54398438 50.81921875 183.08796875 50.2109375 183.6484375 C45.60862394 187.59574014 40.88653744 190.17198074 35.3125 192.4375 C34.6829541 192.696521 34.0534082 192.95554199 33.40478516 193.22241211 C29.18008628 194.84297411 26.74139394 195 22 195 C22 204.9 22 214.8 22 225 C14.74 225 7.48 225 0 225 C0 215.76 0 206.52 0 197 C-1.959375 196.938125 -3.91875 196.87625 -5.9375 196.8125 C-23.98522271 195.43536453 -42.43784598 188.11292863 -56 176 C-54.64667694 172.39154308 -53.02868732 169.15451186 -51.06640625 165.83984375 C-50.49986328 164.88142578 -49.93332031 163.92300781 -49.34960938 162.93554688 C-48.75986328 161.94619141 -48.17011719 160.95683594 -47.5625 159.9375 C-46.68368164 158.44766602 -46.68368164 158.44766602 -45.78710938 156.92773438 C-43.34266001 152.80740826 -40.94083045 148.7892208 -38 145 C-34.51120127 146.63589606 -31.36291531 148.66675274 -28.125 150.75 C-16.10848244 158.30180743 -3.53272763 163.96071809 10.91796875 161.50390625 C16.7111236 160.12011622 20.33721057 158.76162626 24 154 C25.13557238 151.72885524 25.23084318 150.27706381 25.3125 147.75 C25.34988281 147.00234375 25.38726562 146.2546875 25.42578125 145.484375 C24.6291155 140.83593996 22.13036755 137.82916182 18.390625 135.0859375 C16.83601563 134.23902344 16.83601563 134.23902344 15.25 133.375 C14.66581299 133.05217041 14.08162598 132.72934082 13.47973633 132.39672852 C9.39396475 130.17610012 5.23175951 128.11699648 1.05859375 126.06640625 C0.00961914 125.54965332 -1.03935547 125.03290039 -2.12011719 124.50048828 C-4.20247359 123.48096812 -6.29018141 122.4722853 -8.38378906 121.47607422 C-22.19316006 114.76148822 -33.75574112 105.29815966 -40 91 C-43.34658672 81.06338806 -43.45177891 70.32882922 -39.31640625 60.6171875 C-31.89746891 45.86737143 -20.84556664 35.34818968 -5 30 C-3.35 30 -1.7 30 0 30 C0 20.1 0 10.2 0 0 Z " fill="#1501FF" transform="translate(176,263)"/>
<path d="M0 0 C2.86806779 1.53569488 5.66391087 3.13441505 8.44067383 4.83081055 C9.27650749 5.33945145 9.27650749 5.33945145 10.12922668 5.85836792 C11.94368018 6.9639453 13.75470672 8.075002 15.56567383 9.1862793 C16.83333407 9.96038908 18.10115805 10.7342308 19.36914062 11.5078125 C27.56738454 16.51455452 35.74178561 21.55980399 43.90161133 26.62890625 C50.26727824 30.58100645 56.66123378 34.48487228 63.06567383 38.3737793 C73.18106758 44.51704317 83.26256562 50.71384092 93.30737305 56.97192383 C94.8465961 57.92740694 96.39009126 58.87603402 97.93725586 59.81860352 C98.67186035 60.26864746 99.40646484 60.71869141 100.16333008 61.18237305 C101.14765015 61.78069946 101.14765015 61.78069946 102.15185547 62.39111328 C102.61841553 62.71539307 103.08497559 63.03967285 103.56567383 63.3737793 C103.56567383 63.7037793 103.56567383 64.0337793 103.56567383 64.3737793 C34.26567383 64.3737793 -35.03432617 64.3737793 -106.43432617 64.3737793 C-102.79722319 61.46409691 -99.50664608 59.09215018 -95.55932617 56.72143555 C-95.00223969 56.38526215 -94.4451532 56.04908875 -93.8711853 55.70272827 C-92.67950988 54.98403583 -91.48688716 54.26691212 -90.293396 53.55123901 C-87.11978168 51.64789355 -83.95339959 49.73257066 -80.78588867 47.8190918 C-80.15228424 47.43677902 -79.51867981 47.05446625 -78.86587524 46.66056824 C-73.49038399 43.41485141 -68.14292883 40.12539823 -62.80932617 36.8112793 C-57.28070345 33.37736218 -51.74904038 29.94888615 -46.20385742 26.54174805 C-44.5850769 25.54679321 -44.5850769 25.54679321 -42.93359375 24.53173828 C-40.73814024 23.18403896 -38.54137577 21.83847276 -36.34326172 20.49511719 C-30.72122061 17.05067137 -25.14362456 13.55385844 -19.62182617 9.9519043 C-18.52974854 9.24662598 -17.4376709 8.54134766 -16.3125 7.81469727 C-14.22691436 6.46430889 -12.15071181 5.09928752 -10.08544922 3.71801758 C-9.1525708 3.11715332 -8.21969238 2.51628906 -7.25854492 1.8972168 C-6.44474365 1.36016113 -5.63094238 0.82310547 -4.79248047 0.26977539 C-2.43432617 -0.6262207 -2.43432617 -0.6262207 0 0 Z " fill="#F9F8FF" transform="translate(251.434326171875,19.626220703125)"/>
<path d="M0 0 C6.6 0 13.2 0 20 0 C20.13020833 2.5390625 20.26041667 5.078125 20.390625 7.6171875 C20.59171875 8.40351562 20.7928125 9.18984375 21 10 C22.32 10.66 23.64 11.32 25 12 C25 39.39 25 66.78 25 95 C23.02 95.99 23.02 95.99 21 97 C20.29823412 99.41679707 20.29823412 99.41679707 20.25 102.125 C20.1675 103.73375 20.085 105.3425 20 107 C13.4 107 6.8 107 0 107 C-0.33 103.37 -0.66 99.74 -1 96 C-1.99 95.67 -2.98 95.34 -4 95 C-4 67.61 -4 40.22 -4 12 C-3.01 11.67 -2.02 11.34 -1 11 C-0.67 7.37 -0.34 3.74 0 0 Z " fill="#FBFAFF" transform="translate(181,105)"/>
<path d="M0 0 C6.6 0 13.2 0 20 0 C20.16276042 2.5390625 20.32552083 5.078125 20.48828125 7.6171875 C20.7882039 10.36221601 20.7882039 10.36221601 24 12 C24.2863593 14.69204148 24.37835144 17.15319556 24.34057617 19.84619141 C24.34123329 21.06094902 24.34123329 21.06094902 24.34190369 22.30024719 C24.33980914 24.98426194 24.31644717 27.66765652 24.29296875 30.3515625 C24.28737515 32.20958108 24.28310394 34.06760408 24.28010559 35.92562866 C24.26863819 40.82153489 24.2391548 45.71717512 24.20599365 50.61297607 C24.17533352 55.60653077 24.16160895 60.60012835 24.14648438 65.59375 C24.11428685 75.39595036 24.06306771 85.19795308 24 95 C22.02 95.495 22.02 95.495 20 96 C20 99.63 20 103.26 20 107 C13.4 107 6.8 107 0 107 C-0.24414062 103.19140625 -0.24414062 103.19140625 -0.48828125 99.3828125 C-0.7882039 96.63778399 -0.7882039 96.63778399 -4 95 C-4.3022802 92.31955457 -4.4094628 89.86889775 -4.38818359 87.18554688 C-4.39344055 86.37892105 -4.39869751 85.57229523 -4.40411377 84.7412262 C-4.41735024 82.06687223 -4.408563 79.39311034 -4.3984375 76.71875 C-4.40045719 74.86551804 -4.40336775 73.01228685 -4.40713501 71.15905762 C-4.4115633 67.27181443 -4.40511112 63.38477781 -4.39111328 59.49755859 C-4.37402108 54.50694081 -4.38385957 49.51680698 -4.40183067 44.52620697 C-4.41265491 40.69842868 -4.40922844 36.87076572 -4.4014473 33.04298401 C-4.39944152 31.20251916 -4.40191774 29.36204394 -4.40888596 27.52159119 C-4.41647819 24.95226172 -4.40492809 22.38372343 -4.38818359 19.81445312 C-4.39425629 19.04867447 -4.40032898 18.28289581 -4.40658569 17.49391174 C-4.38095093 15.37805176 -4.38095093 15.37805176 -4 12 C-3.01 11.34 -2.02 10.68 -1 10 C-0.41810734 7.57478506 -0.41810734 7.57478506 -0.3125 4.875 C-0.209375 3.26625 -0.10625 1.6575 0 0 Z " fill="#FEFEFF" transform="translate(299,105)"/>
<path d="M0 0 C6.6 0 13.2 0 20 0 C20.16276042 2.5390625 20.32552083 5.078125 20.48828125 7.6171875 C20.7882039 10.36221601 20.7882039 10.36221601 24 12 C24.3022802 14.68044543 24.4094628 17.13110225 24.38818359 19.81445312 C24.39344055 20.62107895 24.39869751 21.42770477 24.40411377 22.2587738 C24.41735024 24.93312777 24.408563 27.60688966 24.3984375 30.28125 C24.40045719 32.13448196 24.40336775 33.98771315 24.40713501 35.84094238 C24.4115633 39.72818557 24.40511112 43.61522219 24.39111328 47.50244141 C24.37402108 52.49305919 24.38385957 57.48319302 24.40183067 62.47379303 C24.41265491 66.30157132 24.40922844 70.12923428 24.4014473 73.95701599 C24.39944152 75.79748084 24.40191774 77.63795606 24.40888596 79.47840881 C24.41647819 82.04773828 24.40492809 84.61627657 24.38818359 87.18554688 C24.39729263 88.33421486 24.39729263 88.33421486 24.40658569 89.50608826 C24.38095093 91.62194824 24.38095093 91.62194824 24 95 C22.515 95.99 22.515 95.99 21 97 C20.41810734 99.42521494 20.41810734 99.42521494 20.3125 102.125 C20.209375 103.73375 20.10625 105.3425 20 107 C13.4 107 6.8 107 0 107 C0 103.37 0 99.74 0 96 C-1.32 95.67 -2.64 95.34 -4 95 C-4 67.61 -4 40.22 -4 12 C-2.68 11.67 -1.36 11.34 0 11 C0 7.37 0 3.74 0 0 Z " fill="#FEFEFF" transform="translate(240,105)"/>
<path d="M0 0 C74.58 0 149.16 0 226 0 C226 3.3 226 6.6 226 10 C151.42 10 76.84 10 0 10 C0 6.7 0 3.4 0 0 Z " fill="#F8F8FF" transform="translate(137,234)"/>
<path d="M0 0 C74.58 0 149.16 0 226 0 C226 2.97 226 5.94 226 9 C151.42 9 76.84 9 0 9 C0 6.03 0 3.06 0 0 Z " fill="#F8F7FF" transform="translate(137,90)"/>
<path d="M0 0 C66.99 0 133.98 0 203 0 C203 3.3 203 6.6 203 10 C136.01 10 69.02 10 0 10 C0 6.7 0 3.4 0 0 Z " fill="#F8F8FF" transform="translate(149,218)"/>
<path d="M0 0 C6.27 0 12.54 0 19 0 C19 27.39 19 54.78 19 83 C12.73 83 6.46 83 0 83 C0 55.61 0 28.22 0 0 Z " fill="#F7F6FF" transform="translate(329,117)"/>
<path d="M0 0 C6.27 0 12.54 0 19 0 C19 27.39 19 54.78 19 83 C12.73 83 6.46 83 0 83 C0 55.61 0 28.22 0 0 Z " fill="#F7F6FF" transform="translate(270,117)"/>
<path d="M0 0 C5.94 0 11.88 0 18 0 C18 27.39 18 54.78 18 83 C12.06 83 6.12 83 0 83 C0 55.61 0 28.22 0 0 Z " fill="#FDFDFF" transform="translate(212,117)"/>
<path d="M0 0 C5.94 0 11.88 0 18 0 C18 27.39 18 54.78 18 83 C12.06 83 6.12 83 0 83 C0 55.61 0 28.22 0 0 Z " fill="#FFFFFF" transform="translate(153,117)"/>
<path d="M0 0 C25.76450512 0 25.76450512 0 35 6 C39.48931274 10.83464449 40.19050764 13.70093648 40.3125 20.25 C40.36857422 22.20679688 40.36857422 22.20679688 40.42578125 24.203125 C39.8525658 29.31473433 37.96750038 32.3232436 34.0703125 35.64453125 C33.10738281 36.22267578 33.10738281 36.22267578 32.125 36.8125 C31.48820312 37.21082031 30.85140625 37.60914063 30.1953125 38.01953125 C24.061737 40.75890394 17.20028671 40.11722142 10.625 40.0625 C7.11875 40.041875 3.6125 40.02125 0 40 C0 26.8 0 13.6 0 0 Z " fill="#FAFAFF" transform="translate(301,390)"/>
<path d="M0 0 C3.00735861 1.39888393 5.77663671 2.9986283 8.60742188 4.72802734 C9.16473495 5.0671666 9.72204803 5.40630585 10.29624939 5.75572205 C12.11062685 6.86122908 13.92156844 7.9722277 15.73242188 9.08349609 C16.99862292 9.85686415 18.26498197 10.62997358 19.53149414 11.40283203 C28.59481117 16.93888956 37.638591 22.50692614 46.65039062 28.12646484 C50.2977427 30.39610376 53.97064212 32.61809615 57.65820312 34.82177734 C58.63217041 35.40926758 59.6061377 35.99675781 60.60961914 36.60205078 C62.48303849 37.73116525 64.36221739 38.85079442 66.24780273 39.95947266 C67.0831958 40.46575195 67.91858887 40.97203125 68.77929688 41.49365234 C69.52018555 41.93459229 70.26107422 42.37553223 71.02441406 42.82983398 C73.05970438 44.54714655 73.37298592 45.67549381 73.73242188 48.27099609 C72.01416016 49.41503906 72.01416016 49.41503906 69.73242188 50.27099609 C67.57958984 49.46679688 67.57958984 49.46679688 65.22460938 47.96630859 C63.88825439 47.13280884 63.88825439 47.13280884 62.52490234 46.2824707 C61.08074951 45.34866577 61.08074951 45.34866577 59.60742188 44.39599609 C57.52416757 43.08727654 55.44083111 41.77868775 53.35742188 40.47021484 C52.27074219 39.77976074 51.1840625 39.08930664 50.06445312 38.37792969 C43.53294459 34.24787996 36.92588597 30.23943078 30.3347168 26.20556641 C25.04891377 22.96071372 19.79500203 19.68035919 14.59570312 16.29833984 C13.63615723 15.681604 12.67661133 15.06486816 11.68798828 14.42944336 C9.88741622 13.26934644 8.09608435 12.0947371 6.31591797 10.90356445 C5.51879395 10.39317627 4.72166992 9.88278809 3.90039062 9.35693359 C3.21227295 8.90366699 2.52415527 8.45040039 1.81518555 7.98339844 C-0.31194203 7.03692011 -0.31194203 7.03692011 -2.69921875 7.94482422 C-5.3870048 9.33266204 -7.95992952 10.80651587 -10.52929688 12.40380859 C-11.55313477 13.03730225 -12.57697266 13.6707959 -13.63183594 14.32348633 C-14.72850586 15.00741455 -15.82517578 15.69134277 -16.95507812 16.39599609 C-18.10815077 17.1113206 -19.26147545 17.826239 -20.41503906 18.54077148 C-22.21046878 19.65311797 -24.00563171 20.76587974 -25.79983521 21.88020325 C-29.94909342 24.45713834 -34.10709235 27.01937954 -38.27148438 29.57177734 C-39.39578857 30.26134521 -40.52009277 30.95091309 -41.6784668 31.66137695 C-43.88777973 33.01584715 -46.09757078 34.36953782 -48.30786133 35.72241211 C-52.87076988 38.52438298 -57.41570267 41.33643388 -61.86914062 44.31005859 C-62.52301758 44.74519775 -63.17689453 45.18033691 -63.85058594 45.62866211 C-65.48495919 46.72752206 -67.10741799 47.84405018 -68.72851562 48.96240234 C-71.26757812 50.27099609 -71.26757812 50.27099609 -73.61914062 49.98583984 C-74.163125 49.74994141 -74.70710937 49.51404297 -75.26757812 49.27099609 C-75.59757813 47.95099609 -75.92757812 46.63099609 -76.26757812 45.27099609 C-65.24632151 38.24928534 -54.1602036 31.34853586 -42.98706055 24.57104492 C-36.31251543 20.52069905 -29.65709459 16.44100367 -23.01757812 12.33349609 C-22.14504395 11.79660156 -21.27250977 11.25970703 -20.37353516 10.70654297 C-16.76519411 8.47894823 -13.1792291 6.24358472 -9.68945312 3.83349609 C-8.72523438 3.17349609 -7.76101562 2.51349609 -6.76757812 1.83349609 C-5.99414062 1.27791016 -5.22070312 0.72232422 -4.42382812 0.14990234 C-2.26757812 -0.72900391 -2.26757812 -0.72900391 0 0 Z " fill="#1E0BFF" transform="translate(251.267578125,28.72900390625)"/>
<path d="M0 0 C18.38743455 0 18.38743455 0 25.5546875 6.3671875 C29.15106723 10.4301246 29.43665769 14.13725541 29.3125 19.3984375 C28.63831223 25.01105068 26.47524909 28.7542341 22.1875 32.375 C14.2495335 36.42180645 9.555511 36 0 36 C0 24.12 0 12.24 0 0 Z " fill="#FAF9FF" transform="translate(301,321)"/>
<path d="M0 0 C1.65 0.33 3.3 0.66 5 1 C5 2.32 5 3.64 5 5 C7.64 5 10.28 5 13 5 C13.38218767 6.65614657 13.71395102 8.32457024 14 10 C13 11 13 11 11.15234375 11.09765625 C9.1015625 11.06510417 7.05078125 11.03255208 5 11 C5 12.32 5 13.64 5 15 C6.3921875 15.1546875 6.3921875 15.1546875 7.8125 15.3125 C11.16501127 16.03559067 11.98335069 16.36649325 14 19 C14.87258175 23.26857557 14.71882764 26.90844692 12.3125 30.5625 C9.62515045 32.23301458 8.10843835 32.34538204 5 32 C4.505 34.475 4.505 34.475 4 37 C2.68 36.67 1.36 36.34 0 36 C-0.33 34.68 -0.66 33.36 -1 32 C-3.64 32 -6.28 32 -9 32 C-9.38218767 30.34385343 -9.71395102 28.67542976 -10 27 C-9 26 -9 26 -7.15234375 25.90234375 C-5.1015625 25.93489583 -3.05078125 25.96744792 -1 26 C-1 24.35 -1 22.7 -1 21 C-2.3921875 21.12375 -2.3921875 21.12375 -3.8125 21.25 C-7 21 -7 21 -8.875 19.5625 C-10.51918919 15.81740239 -10.75595176 12.0243314 -10 8 C-8.67578125 6.234375 -8.67578125 6.234375 -7 5 C-3.8125 4.8125 -3.8125 4.8125 -1 5 C-0.67 3.35 -0.34 1.7 0 0 Z " fill="#2512FF" transform="translate(248,43)"/>
<path d="M0 0 C8.91 0 17.82 0 27 0 C27 1.98 27 3.96 27 6 C18.09 6 9.18 6 0 6 C0 4.02 0 2.04 0 0 Z " fill="#FBFAFF" transform="translate(325,206)"/>
<path d="M0 0 C8.91 0 17.82 0 27 0 C27 1.98 27 3.96 27 6 C18.09 6 9.18 6 0 6 C0 4.02 0 2.04 0 0 Z " fill="#FBFAFF" transform="translate(266,206)"/>
<path d="M0 0 C8.91 0 17.82 0 27 0 C27 1.98 27 3.96 27 6 C18.09 6 9.18 6 0 6 C0 4.02 0 2.04 0 0 Z " fill="#FBFAFF" transform="translate(325,105)"/>
<path d="M0 0 C8.91 0 17.82 0 27 0 C27 1.98 27 3.96 27 6 C18.09 6 9.18 6 0 6 C0 4.02 0 2.04 0 0 Z " fill="#FBFAFF" transform="translate(266,105)"/>
<path d="M0 0 C8.58 0 17.16 0 26 0 C26 1.98 26 3.96 26 6 C17.42 6 8.84 6 0 6 C0 4.02 0 2.04 0 0 Z " fill="#FFFFFF" transform="translate(208,206)"/>
<path d="M0 0 C8.58 0 17.16 0 26 0 C26 1.98 26 3.96 26 6 C17.42 6 8.84 6 0 6 C0 4.02 0 2.04 0 0 Z " fill="#FFFFFF" transform="translate(149,206)"/>
<path d="M0 0 C8.58 0 17.16 0 26 0 C26 1.98 26 3.96 26 6 C17.42 6 8.84 6 0 6 C0 4.02 0 2.04 0 0 Z " fill="#FFFFFF" transform="translate(208,105)"/>
<path d="M0 0 C8.58 0 17.16 0 26 0 C26 1.98 26 3.96 26 6 C17.42 6 8.84 6 0 6 C0 4.02 0 2.04 0 0 Z " fill="#FFFFFF" transform="translate(149,105)"/>
</svg>
