<?xml version="1.0" encoding="UTF-8"?>
<svg width="96" height="96" viewBox="0 0 96 96" xmlns="http://www.w3.org/2000/svg">
    <defs>
        <linearGradient id="logo-grad" x1="0" y1="0" x2="1" y2="1">
            <stop offset="0%" stop-color="#1b70ff"/>
            <stop offset="100%" stop-color="#7b3fee"/>
        </linearGradient>
    </defs>
    <rect x="6" y="6" width="84" height="84" rx="24" fill="url(#logo-grad)"/>
    <rect x="24" y="24" width="48" height="48" rx="12" fill="#ffffff" opacity="0.92"/>
    <path d="M48 30c-9 0-14 5.2-14 11.3 0 4.8 2.8 8.3 7.5 9.8v0.2c-3.3 1.4-5.2 3.7-5.2 6.8 0 5.1 4.7 8.9 11.7 8.9 5.3 0 9.8-2.2 12.1-6l-5.3-3c-1.3 2.1-3.5 3.3-6 3.3-3 0-4.9-1.4-4.9-3.4 0-2.3 2.5-3.5 5.9-3.5h3v-5.6h-3c-4.4 0-7.6-1.8-7.6-4.9 0-3 2.3-5 6-5 2.4 0 4.5 1.1 5.6 3l5.1-3.1c-2.2-3.8-6.4-6.1-11.9-6.1z" fill="#1b52d8"/>
</svg>
